<?xml version="1.0" encoding="utf-8"?>
<!-- Generator: Adobe Illustrator 16.0.0, SVG Export Plug-In . SVG Version: 6.00 Build 0)  -->
<!DOCTYPE svg PUBLIC "-//W3C//DTD SVG 1.1//EN" "http://www.w3.org/Graphics/SVG/1.1/DTD/svg11.dtd">
<svg version="1.1" id="Layer_1" xmlns="http://www.w3.org/2000/svg" xmlns:xlink="http://www.w3.org/1999/xlink" x="0px" y="0px"
	 width="234.792px" height="62.634px" viewBox="0 0 234.792 62.634" enable-background="new 0 0 234.792 62.634"
	 xml:space="preserve">
<path fill="#DEDFE0" d="M29.049,9.711c0,5.363-4.348,9.711-9.711,9.711c-5.364,0-9.712-4.348-9.712-9.711
	C9.626,4.349,13.974,0,19.338,0C24.701,0,29.049,4.349,29.049,9.711"/>
<path fill="#A7A9AC" d="M49.315,9.711c0,5.363-4.348,9.711-9.711,9.711c-5.364,0-9.712-4.348-9.712-9.711
	C29.892,4.349,34.24,0,39.604,0C44.967,0,49.315,4.349,49.315,9.711"/>
<path fill="#A7A9AC" d="M69.617,9.711c0,5.363-4.348,9.711-9.711,9.711c-5.364,0-9.711-4.348-9.711-9.711
	C50.195,4.349,54.542,0,59.906,0C65.269,0,69.617,4.349,69.617,9.711"/>
<path fill="#DEDFE0" d="M89.884,9.711c0,5.363-4.348,9.711-9.711,9.711c-5.364,0-9.712-4.348-9.712-9.711
	C70.461,4.349,74.809,0,80.173,0C85.536,0,89.884,4.349,89.884,9.711"/>
<path fill="#DEDFE0" d="M29.049,47.111c0,5.363-4.348,9.711-9.711,9.711c-5.364,0-9.712-4.348-9.712-9.711
	c0-5.364,4.348-9.711,9.712-9.711C24.701,37.4,29.049,41.747,29.049,47.111"/>
<path fill="#A7A9AC" d="M49.315,47.111c0,5.363-4.348,9.711-9.711,9.711c-5.364,0-9.712-4.348-9.712-9.711
	c0-5.364,4.348-9.711,9.712-9.711C44.967,37.4,49.315,41.747,49.315,47.111"/>
<path fill="#A7A9AC" d="M69.935,47.111c0,5.363-4.348,9.711-9.711,9.711c-5.364,0-9.712-4.348-9.712-9.711
	c0-5.364,4.348-9.711,9.712-9.711C65.586,37.4,69.935,41.747,69.935,47.111"/>
<path fill="#DEDFE0" d="M90.201,47.111c0,5.363-4.348,9.711-9.711,9.711c-5.364,0-9.712-4.348-9.712-9.711
	c0-5.364,4.348-9.711,9.712-9.711C85.853,37.4,90.201,41.747,90.201,47.111"/>
<path fill="#DEDFE0" d="M19.423,28.442c0,5.364-4.348,9.711-9.711,9.711C4.348,38.153,0,33.806,0,28.442
	c0-5.363,4.348-9.711,9.712-9.711C15.075,18.731,19.423,23.079,19.423,28.442"/>
<path fill="#A7A9AC" d="M39.372,28.442c0,5.364-4.348,9.711-9.711,9.711c-5.364,0-9.711-4.347-9.711-9.711
	c0-5.363,4.347-9.711,9.711-9.711C35.024,18.731,39.372,23.079,39.372,28.442"/>
<path fill="#A7A9AC" d="M59.322,28.442c0,5.364-4.348,9.711-9.711,9.711c-5.364,0-9.712-4.347-9.712-9.711
	c0-5.363,4.348-9.711,9.712-9.711C54.974,18.731,59.322,23.079,59.322,28.442"/>
<path fill="#A7A9AC" d="M79.624,28.442c0,5.364-4.348,9.711-9.711,9.711c-5.364,0-9.712-4.347-9.712-9.711
	c0-5.363,4.348-9.711,9.712-9.711C75.276,18.731,79.624,23.079,79.624,28.442"/>
<path fill="#DEDFE0" d="M99.574,28.442c0,5.364-4.348,9.711-9.711,9.711c-5.364,0-9.712-4.347-9.712-9.711
	c0-5.363,4.348-9.711,9.712-9.711C95.226,18.731,99.574,23.079,99.574,28.442"/>
<rect x="4.996" y="60.934" fill="#00AEEF" width="229.796" height="1.7"/>
<path fill="#00AEEF" d="M107.551,40.592V30.032h1.865v4.133c0.198,0,0.392,0.006,0.582,0.021c0.188,0.016,0.377,0.031,0.566,0.052
	l3.58-4.206h2.043l-3.773,4.639c1.064,0.418,1.916,1.104,2.558,2.059c0.641,0.955,1.101,2.242,1.379,3.863h-2.043
	c-0.159-0.846-0.365-1.576-0.619-2.192c-0.254-0.617-0.575-1.124-0.962-1.522c-0.388-0.396-0.856-0.686-1.402-0.864
	c-0.547-0.179-1.184-0.259-1.909-0.238v4.817H107.551z"/>
<path fill="#00AEEF" d="M125.271,36.96c0,0.567-0.103,1.089-0.308,1.562c-0.203,0.473-0.482,0.879-0.836,1.217
	c-0.354,0.34-0.771,0.602-1.256,0.785c-0.482,0.185-1.002,0.277-1.561,0.277s-1.076-0.093-1.555-0.277
	c-0.479-0.184-0.894-0.445-1.248-0.785c-0.354-0.338-0.633-0.744-0.836-1.217c-0.205-0.473-0.307-0.994-0.307-1.562
	c0-0.568,0.102-1.086,0.307-1.554c0.203-0.469,0.482-0.869,0.836-1.203c0.354-0.334,0.77-0.594,1.248-0.777
	c0.479-0.186,0.996-0.277,1.555-0.277s1.078,0.092,1.561,0.277c0.484,0.184,0.902,0.443,1.256,0.777s0.633,0.734,0.836,1.203
	C125.168,35.875,125.271,36.392,125.271,36.96 M123.48,36.975c0-0.309-0.049-0.605-0.148-0.891c-0.1-0.284-0.24-0.533-0.424-0.748
	c-0.183-0.214-0.41-0.383-0.684-0.508c-0.271-0.125-0.577-0.188-0.914-0.188s-0.639,0.063-0.907,0.188
	c-0.267,0.125-0.493,0.294-0.676,0.508c-0.185,0.215-0.325,0.464-0.424,0.748c-0.099,0.285-0.148,0.582-0.148,0.891
	s0.05,0.605,0.148,0.891c0.099,0.283,0.239,0.533,0.424,0.748c0.183,0.215,0.409,0.384,0.676,0.509
	c0.269,0.125,0.57,0.187,0.907,0.187s0.643-0.062,0.914-0.187c0.273-0.125,0.501-0.294,0.684-0.509
	c0.184-0.215,0.324-0.465,0.424-0.748C123.432,37.581,123.48,37.284,123.48,36.975"/>
<polygon fill="#00AEEF" points="128.492,33.373 131.222,36.639 133.906,33.373 135.473,33.373 135.473,40.592 133.683,40.592 
	133.683,35.879 131.416,38.832 130.998,38.832 128.716,35.924 128.716,40.592 126.926,40.592 126.926,33.373 "/>
<polygon fill="#00AEEF" points="139.335,40.592 137.546,40.592 137.546,33.374 144.183,33.374 144.183,40.592 142.393,40.592 
	142.393,34.79 139.335,34.79 "/>
<path fill="#00AEEF" d="M148.075,44.172h-1.789v-10.8h1.715v1.045h0.045c0.26-0.378,0.608-0.679,1.047-0.903
	c0.438-0.223,0.922-0.335,1.45-0.335c0.548,0,1.041,0.099,1.479,0.298c0.439,0.199,0.813,0.469,1.122,0.813
	c0.309,0.343,0.548,0.746,0.718,1.208c0.169,0.463,0.254,0.951,0.254,1.469s-0.082,1.007-0.247,1.469
	c-0.164,0.463-0.4,0.868-0.71,1.217c-0.309,0.348-0.685,0.623-1.129,0.828c-0.443,0.202-0.939,0.305-1.487,0.305
	c-0.479,0-0.939-0.103-1.384-0.305c-0.443-0.205-0.795-0.494-1.054-0.873h-0.03V44.172z M152.326,36.967
	c0-0.309-0.047-0.604-0.142-0.887s-0.231-0.532-0.41-0.746c-0.178-0.214-0.402-0.383-0.671-0.507
	c-0.269-0.125-0.582-0.188-0.939-0.188c-0.329,0-0.627,0.063-0.896,0.188c-0.269,0.124-0.499,0.293-0.693,0.507
	c-0.193,0.214-0.343,0.463-0.447,0.746s-0.155,0.578-0.155,0.887c0,0.318,0.051,0.619,0.155,0.903
	c0.104,0.282,0.254,0.528,0.447,0.737c0.194,0.209,0.425,0.375,0.693,0.5s0.566,0.187,0.896,0.187c0.357,0,0.671-0.062,0.939-0.187
	s0.493-0.293,0.671-0.508c0.179-0.214,0.315-0.462,0.41-0.744C152.279,37.571,152.326,37.276,152.326,36.967"/>
<path fill="#00AEEF" d="M162.707,36.938v0.254c0,0.088-0.005,0.179-0.015,0.269h-5.578c0.01,0.269,0.074,0.522,0.193,0.76
	c0.119,0.239,0.276,0.443,0.47,0.612c0.194,0.169,0.415,0.303,0.664,0.402c0.248,0.1,0.518,0.148,0.806,0.148
	c0.447,0,0.835-0.094,1.163-0.283c0.327-0.188,0.582-0.418,0.761-0.686l1.268,0.85c-0.378,0.518-0.837,0.903-1.38,1.156
	c-0.541,0.254-1.15,0.38-1.826,0.38c-0.538,0-1.042-0.089-1.514-0.268c-0.474-0.179-0.883-0.433-1.232-0.761
	c-0.347-0.328-0.62-0.726-0.819-1.193c-0.199-0.469-0.298-0.994-0.298-1.581c0-0.567,0.097-1.086,0.291-1.56
	c0.193-0.472,0.462-0.877,0.805-1.215c0.344-0.338,0.743-0.599,1.201-0.783c0.457-0.185,0.954-0.275,1.491-0.275
	c0.547,0,1.039,0.091,1.477,0.275s0.81,0.439,1.119,0.769c0.308,0.328,0.544,0.724,0.708,1.185
	C162.625,35.856,162.707,36.372,162.707,36.938 M161.007,36.296c-0.01-0.521-0.172-0.957-0.484-1.308
	c-0.313-0.352-0.769-0.526-1.365-0.526c-0.289,0-0.552,0.049-0.79,0.149c-0.239,0.101-0.447,0.232-0.627,0.398
	c-0.179,0.166-0.32,0.361-0.425,0.588c-0.104,0.225-0.167,0.459-0.187,0.698H161.007z"/>
<path fill="#00AEEF" d="M169.464,35.401c-0.149-0.229-0.363-0.409-0.642-0.543c-0.278-0.135-0.571-0.202-0.88-0.202
	c-0.328,0-0.625,0.06-0.888,0.18c-0.263,0.119-0.487,0.284-0.671,0.494c-0.184,0.209-0.328,0.456-0.433,0.739
	c-0.104,0.285-0.156,0.592-0.156,0.921c0,0.319,0.05,0.62,0.149,0.905c0.099,0.285,0.243,0.531,0.433,0.74
	c0.188,0.211,0.417,0.374,0.686,0.495c0.269,0.119,0.566,0.179,0.896,0.179c0.337,0,0.644-0.064,0.917-0.193
	s0.494-0.303,0.663-0.522l1.09,1.144c-0.309,0.326-0.694,0.584-1.156,0.777c-0.463,0.19-0.982,0.286-1.559,0.286
	c-0.577,0-1.106-0.092-1.589-0.274c-0.482-0.186-0.9-0.443-1.253-0.776s-0.626-0.733-0.82-1.201
	c-0.193-0.467-0.291-0.989-0.291-1.565c0-0.567,0.1-1.084,0.299-1.551c0.198-0.468,0.472-0.871,0.82-1.209
	c0.348-0.338,0.766-0.599,1.253-0.783s1.015-0.275,1.581-0.275c0.507,0,1.007,0.094,1.499,0.283s0.887,0.457,1.186,0.806
	L169.464,35.401z"/>
<path fill="#00AEEF" d="M176.817,35.401c-0.149-0.229-0.363-0.409-0.642-0.543c-0.278-0.135-0.572-0.202-0.88-0.202
	c-0.328,0-0.625,0.06-0.888,0.18c-0.264,0.119-0.487,0.284-0.671,0.494c-0.185,0.209-0.328,0.456-0.433,0.739
	c-0.104,0.285-0.157,0.592-0.157,0.921c0,0.319,0.05,0.62,0.148,0.905c0.101,0.285,0.245,0.531,0.434,0.74
	c0.189,0.211,0.418,0.374,0.687,0.495c0.268,0.119,0.566,0.179,0.895,0.179c0.338,0,0.644-0.064,0.917-0.193
	s0.495-0.303,0.664-0.522l1.089,1.144c-0.31,0.326-0.693,0.584-1.156,0.777c-0.462,0.19-0.981,0.286-1.559,0.286
	c-0.576,0-1.106-0.092-1.588-0.274c-0.482-0.186-0.9-0.443-1.253-0.776c-0.354-0.333-0.627-0.733-0.82-1.201
	c-0.194-0.467-0.291-0.989-0.291-1.565c0-0.567,0.1-1.084,0.298-1.551c0.199-0.468,0.473-0.871,0.82-1.209
	c0.349-0.338,0.766-0.599,1.253-0.783c0.486-0.185,1.015-0.275,1.581-0.275c0.508,0,1.007,0.094,1.499,0.283
	s0.888,0.457,1.186,0.806L176.817,35.401z"/>
<polygon fill="#00AEEF" points="184.604,35.655 180.859,40.592 179.069,40.592 179.069,33.374 180.859,33.374 180.859,38.191 
	184.604,33.374 186.394,33.374 186.394,40.592 184.604,40.592 "/>
<path fill="#00AEEF" d="M195.983,36.96c0,0.567-0.104,1.089-0.307,1.562c-0.204,0.473-0.483,0.879-0.836,1.217
	c-0.354,0.34-0.772,0.602-1.256,0.785c-0.483,0.185-1.004,0.277-1.562,0.277s-1.076-0.093-1.554-0.277
	c-0.479-0.184-0.895-0.445-1.248-0.785c-0.354-0.338-0.632-0.744-0.837-1.217c-0.204-0.473-0.307-0.994-0.307-1.562
	c0-0.568,0.103-1.086,0.307-1.554c0.205-0.469,0.482-0.869,0.837-1.203c0.354-0.334,0.77-0.594,1.248-0.777
	c0.478-0.186,0.996-0.277,1.554-0.277s1.078,0.092,1.562,0.277c0.483,0.184,0.901,0.443,1.256,0.777
	c0.353,0.334,0.632,0.734,0.836,1.203C195.88,35.875,195.983,36.392,195.983,36.96 M194.193,36.975c0-0.309-0.049-0.605-0.148-0.891
	c-0.1-0.284-0.24-0.533-0.424-0.748c-0.183-0.214-0.411-0.383-0.684-0.508s-0.577-0.188-0.914-0.188s-0.64,0.063-0.906,0.188
	c-0.269,0.125-0.494,0.294-0.677,0.508c-0.184,0.215-0.324,0.464-0.424,0.748c-0.099,0.285-0.148,0.582-0.148,0.891
	s0.05,0.605,0.148,0.891c0.1,0.283,0.24,0.533,0.424,0.748c0.183,0.215,0.408,0.384,0.677,0.509
	c0.267,0.125,0.569,0.187,0.906,0.187s0.642-0.062,0.914-0.187s0.501-0.294,0.684-0.509c0.184-0.215,0.324-0.465,0.424-0.748
	C194.145,37.581,194.193,37.284,194.193,36.975"/>
<polygon fill="#00AEEF" points="199.429,40.592 197.639,40.592 197.639,33.374 199.429,33.374 199.429,36.148 202.606,36.148 
	202.606,33.374 204.396,33.374 204.396,40.592 202.606,40.592 202.606,37.549 199.429,37.549 "/>
<polygon fill="#00AEEF" points="208.259,40.592 206.469,40.592 206.469,33.374 208.259,33.374 208.259,36.148 211.436,36.148 
	211.436,33.374 213.226,33.374 213.226,40.592 211.436,40.592 211.436,37.549 208.259,37.549 "/>
<path fill="#00AEEF" d="M219.684,35.939c0-0.478-0.145-0.83-0.433-1.06c-0.288-0.229-0.671-0.342-1.148-0.342
	c-0.378,0-0.738,0.073-1.082,0.223c-0.342,0.148-0.633,0.338-0.871,0.566l-0.926-1.029c0.368-0.348,0.818-0.623,1.351-0.827
	c0.53-0.204,1.096-0.306,1.692-0.306c0.944,0,1.681,0.224,2.207,0.67c0.527,0.449,0.815,1.149,0.866,2.104
	c0.009,0.14,0.017,0.278,0.022,0.417c0.005,0.139,0.007,0.283,0.007,0.434v2.28c0,0.259,0.005,0.521,0.015,0.784
	s0.025,0.509,0.045,0.738h-1.641c-0.01-0.149-0.021-0.303-0.029-0.463c-0.011-0.158-0.016-0.323-0.016-0.492h-0.029
	c-0.259,0.378-0.582,0.662-0.97,0.851s-0.835,0.283-1.343,0.283c-0.278,0-0.569-0.04-0.872-0.119
	c-0.304-0.08-0.58-0.207-0.828-0.381c-0.248-0.173-0.455-0.401-0.619-0.687c-0.164-0.282-0.246-0.633-0.246-1.051
	c0-0.537,0.142-0.965,0.425-1.283c0.284-0.317,0.657-0.562,1.119-0.73s0.982-0.277,1.558-0.328c0.578-0.05,1.159-0.074,1.746-0.074
	V35.939z M219.415,37.236c-0.338,0-0.679,0.015-1.021,0.045s-0.651,0.087-0.925,0.171c-0.273,0.086-0.497,0.209-0.671,0.373
	s-0.261,0.381-0.261,0.649c0,0.198,0.039,0.364,0.119,0.491c0.079,0.13,0.182,0.234,0.306,0.313c0.124,0.08,0.265,0.138,0.425,0.173
	c0.159,0.034,0.318,0.053,0.478,0.053c0.597,0,1.054-0.183,1.372-0.545c0.317-0.363,0.478-0.813,0.478-1.351v-0.373H219.415z"/>
<path fill="#00AEEF" d="M226.755,38.012c-0.29,0-0.551,0.042-0.784,0.126c-0.234,0.085-0.438,0.229-0.611,0.433
	c-0.175,0.204-0.318,0.471-0.433,0.799c-0.114,0.327-0.202,0.735-0.262,1.223h-1.969c0.14-0.945,0.408-1.686,0.806-2.223
	s0.851-0.881,1.357-1.029v-0.045c-0.497-0.049-0.912-0.219-1.245-0.506c-0.334-0.289-0.5-0.762-0.5-1.418
	c0-0.377,0.079-0.693,0.238-0.947s0.373-0.459,0.642-0.619c0.269-0.158,0.579-0.27,0.933-0.335c0.353-0.065,0.723-0.097,1.11-0.097
	h3.327v7.219h-1.79v-2.58H226.755z M224.859,35.737c0,0.362,0.14,0.592,0.417,0.692c0.278,0.101,0.672,0.151,1.179,0.151h1.119
	v-1.717h-1.134c-0.537,0-0.935,0.053-1.193,0.159C224.988,35.127,224.859,35.366,224.859,35.737"/>
<polygon fill="#6D6E71" points="108.461,46.552 111.519,50.147 114.532,46.552 115.397,46.552 115.397,53.532 114.382,53.532 
	114.382,48.03 111.712,51.371 111.295,51.371 108.61,48.104 108.61,53.532 107.596,53.532 107.596,46.552 "/>
<polygon fill="#6D6E71" points="124.167,47.85 119.886,53.534 118.842,53.534 118.842,46.552 119.886,46.552 119.886,52.026 
	124.167,46.552 125.211,46.552 125.211,53.534 124.167,53.534 "/>
<path fill="#6D6E71" d="M129.67,49.417c0.397,0,0.771,0.029,1.119,0.089l2.506-2.953h1.134l-2.716,3.162
	c0.826,0.259,1.468,0.698,1.926,1.321c0.457,0.621,0.819,1.453,1.089,2.498h-1.134c-0.14-0.617-0.316-1.133-0.529-1.545
	c-0.215-0.412-0.482-0.746-0.807-0.998c-0.322-0.254-0.698-0.434-1.125-0.537c-0.428-0.104-0.916-0.162-1.463-0.172v3.252h-1.014
	v-6.981h1.014V49.417z"/>
<path fill="#6D6E71" d="M138.709,57.113h-1.014v-10.56h1.014v1.207h0.045c0.288-0.457,0.674-0.803,1.156-1.037
	c0.481-0.232,0.972-0.35,1.469-0.35c0.547,0,1.042,0.096,1.484,0.283c0.442,0.189,0.821,0.447,1.133,0.775
	c0.314,0.328,0.557,0.717,0.731,1.164c0.174,0.447,0.261,0.93,0.261,1.446c0,0.519-0.087,1-0.261,1.447
	c-0.175,0.448-0.417,0.835-0.731,1.163c-0.312,0.328-0.69,0.587-1.133,0.775c-0.442,0.189-0.938,0.283-1.484,0.283
	c-0.497,0-0.987-0.115-1.469-0.35c-0.482-0.234-0.868-0.569-1.156-1.006h-0.045V57.113z M143.914,50.042
	c0-0.388-0.059-0.753-0.179-1.096c-0.119-0.343-0.291-0.642-0.515-0.896s-0.499-0.455-0.827-0.604
	c-0.329-0.149-0.701-0.225-1.119-0.225c-0.388,0-0.745,0.072-1.073,0.217c-0.329,0.145-0.612,0.343-0.851,0.597
	c-0.239,0.254-0.425,0.552-0.56,0.896c-0.134,0.342-0.201,0.713-0.201,1.11s0.067,0.769,0.201,1.111
	c0.135,0.344,0.32,0.639,0.56,0.888c0.238,0.249,0.521,0.445,0.851,0.589c0.328,0.144,0.686,0.216,1.073,0.216
	c0.418,0,0.79-0.072,1.119-0.216c0.328-0.144,0.604-0.343,0.827-0.597c0.224-0.253,0.396-0.553,0.515-0.895
	C143.855,50.795,143.914,50.43,143.914,50.042"/>
<path fill="#6D6E71" d="M154.982,50.042c0,0.527-0.093,1.015-0.276,1.462c-0.185,0.447-0.44,0.835-0.769,1.163
	c-0.328,0.329-0.721,0.584-1.179,0.769c-0.457,0.184-0.959,0.275-1.506,0.275c-0.537,0-1.034-0.092-1.492-0.275
	c-0.458-0.185-0.85-0.439-1.178-0.769c-0.328-0.328-0.584-0.716-0.769-1.163c-0.184-0.447-0.275-0.935-0.275-1.462
	c0-0.526,0.092-1.014,0.275-1.461c0.185-0.448,0.44-0.836,0.769-1.164s0.72-0.584,1.178-0.769c0.458-0.184,0.955-0.275,1.492-0.275
	c0.547,0,1.049,0.092,1.506,0.275c0.458,0.185,0.851,0.44,1.179,0.769s0.584,0.716,0.769,1.164
	C154.89,49.029,154.982,49.516,154.982,50.042 M153.907,50.042c0-0.388-0.063-0.753-0.186-1.096
	c-0.125-0.343-0.302-0.642-0.53-0.896s-0.507-0.455-0.835-0.604c-0.328-0.149-0.696-0.225-1.104-0.225
	c-0.408,0-0.773,0.075-1.097,0.225c-0.322,0.148-0.599,0.35-0.828,0.604c-0.229,0.254-0.404,0.553-0.528,0.896
	c-0.125,0.343-0.187,0.708-0.187,1.096s0.062,0.753,0.187,1.097c0.124,0.342,0.3,0.642,0.528,0.895
	c0.229,0.254,0.506,0.453,0.828,0.597c0.323,0.144,0.688,0.216,1.097,0.216c0.407,0,0.775-0.072,1.104-0.216
	s0.606-0.343,0.835-0.597c0.229-0.253,0.405-0.553,0.53-0.895C153.845,50.795,153.907,50.43,153.907,50.042"/>
<path fill="#6D6E71" d="M161.172,53.534h-3.192v-6.981h3.013c0.886,0,1.542,0.172,1.969,0.515c0.428,0.344,0.643,0.799,0.643,1.365
	c0,0.258-0.041,0.475-0.12,0.648c-0.08,0.174-0.191,0.318-0.336,0.433c-0.144,0.114-0.311,0.207-0.499,0.276
	c-0.189,0.07-0.388,0.134-0.597,0.193c0.258,0.021,0.502,0.065,0.73,0.135s0.43,0.172,0.604,0.306
	c0.173,0.134,0.311,0.303,0.41,0.507s0.149,0.45,0.149,0.738c0,0.566-0.234,1.02-0.701,1.357
	C162.777,53.364,162.086,53.534,161.172,53.534 M160.933,49.64c0.497,0,0.888-0.078,1.171-0.233
	c0.283-0.154,0.425-0.463,0.425-0.922c0-0.261-0.055-0.466-0.164-0.615c-0.109-0.151-0.264-0.265-0.462-0.34
	c-0.199-0.074-0.438-0.121-0.716-0.142s-0.588-0.03-0.925-0.03h-1.268v2.282H160.933z M158.994,52.727h1.298
	c0.367,0,0.706-0.007,1.014-0.021c0.309-0.016,0.576-0.061,0.806-0.135c0.229-0.076,0.408-0.193,0.537-0.354
	s0.194-0.385,0.194-0.676c0-0.48-0.178-0.795-0.53-0.945s-0.827-0.225-1.424-0.225h-1.895V52.727z"/>
<polygon fill="#6D6E71" points="172.254,47.85 167.973,53.534 166.929,53.534 166.929,46.552 167.973,46.552 167.973,52.026 
	172.254,46.552 173.298,46.552 173.298,53.534 172.254,53.534 "/>
<path fill="#6D6E71" d="M180.1,46.672c0.507,0,0.974,0.084,1.401,0.253s0.793,0.407,1.097,0.717c0.303,0.308,0.539,0.678,0.708,1.11
	s0.254,0.912,0.254,1.439c0,0.537-0.096,1.024-0.283,1.461c-0.189,0.438-0.442,0.809-0.761,1.112
	c-0.318,0.303-0.691,0.536-1.119,0.701c-0.428,0.163-0.88,0.245-1.357,0.245c-0.557,0-1.057-0.09-1.498-0.269
	c-0.443-0.179-0.818-0.435-1.126-0.768c-0.309-0.333-0.548-0.735-0.717-1.208s-0.253-1.002-0.253-1.588
	c0-0.289,0.008-0.567,0.022-0.836s0.031-0.531,0.052-0.791c0.159-1.76,0.624-3.077,1.395-3.952s1.937-1.312,3.498-1.312h2.013v0.864
	h-2.043c-0.726,0-1.325,0.099-1.797,0.298c-0.473,0.199-0.857,0.482-1.156,0.85c-0.297,0.369-0.524,0.812-0.679,1.328
	c-0.154,0.518-0.271,1.09-0.351,1.715c0.259-0.416,0.627-0.75,1.104-0.998C178.98,46.795,179.512,46.672,180.1,46.672
	 M182.485,50.192c0-0.388-0.06-0.742-0.179-1.066c-0.119-0.323-0.286-0.604-0.499-0.842c-0.215-0.24-0.471-0.424-0.769-0.553
	c-0.299-0.129-0.632-0.193-1-0.193c-0.338,0-0.661,0.051-0.969,0.155c-0.309,0.104-0.582,0.263-0.82,0.472
	c-0.239,0.207-0.428,0.469-0.567,0.781c-0.139,0.313-0.209,0.68-0.209,1.098s0.063,0.797,0.187,1.141
	c0.125,0.343,0.299,0.636,0.522,0.88s0.495,0.435,0.813,0.574c0.318,0.139,0.672,0.209,1.06,0.209s0.733-0.07,1.036-0.209
	c0.304-0.14,0.56-0.33,0.769-0.574s0.365-0.526,0.47-0.851C182.434,50.89,182.485,50.55,182.485,50.192"/>
<path fill="#6D6E71" d="M187.631,57.113h-1.014v-10.56h1.014v1.207h0.045c0.288-0.457,0.674-0.803,1.156-1.037
	c0.482-0.232,0.972-0.35,1.469-0.35c0.547,0,1.042,0.096,1.484,0.283c0.442,0.189,0.82,0.447,1.134,0.775s0.557,0.717,0.729,1.164
	c0.175,0.447,0.262,0.93,0.262,1.446c0,0.519-0.087,1-0.262,1.447c-0.173,0.448-0.416,0.835-0.729,1.163s-0.691,0.587-1.134,0.775
	c-0.442,0.189-0.938,0.283-1.484,0.283c-0.497,0-0.986-0.115-1.469-0.35s-0.868-0.569-1.156-1.006h-0.045V57.113z M192.837,50.042
	c0-0.388-0.061-0.753-0.179-1.096c-0.12-0.343-0.291-0.642-0.515-0.896s-0.5-0.455-0.828-0.604
	c-0.328-0.149-0.701-0.225-1.118-0.225c-0.389,0-0.746,0.072-1.075,0.217c-0.327,0.145-0.611,0.343-0.85,0.597
	s-0.425,0.552-0.56,0.896c-0.134,0.342-0.201,0.713-0.201,1.11s0.067,0.769,0.201,1.111c0.135,0.344,0.321,0.639,0.56,0.888
	s0.522,0.445,0.85,0.589c0.329,0.144,0.687,0.216,1.075,0.216c0.417,0,0.79-0.072,1.118-0.216s0.604-0.343,0.828-0.597
	c0.224-0.253,0.395-0.553,0.515-0.895C192.776,50.795,192.837,50.43,192.837,50.042"/>
<path fill="#6D6E71" d="M201.368,49.016c0-0.603-0.159-1.052-0.478-1.349c-0.318-0.296-0.78-0.444-1.387-0.444
	c-0.418,0-0.806,0.075-1.163,0.225c-0.358,0.148-0.662,0.348-0.91,0.596l-0.566-0.671c0.288-0.288,0.668-0.526,1.141-0.716
	c0.472-0.188,1.007-0.283,1.604-0.283c0.378,0,0.73,0.053,1.059,0.157s0.616,0.261,0.865,0.469c0.249,0.209,0.442,0.474,0.582,0.791
	c0.139,0.317,0.209,0.69,0.209,1.118v3.059c0,0.269,0.01,0.547,0.029,0.834c0.021,0.289,0.05,0.533,0.09,0.731h-0.91
	c-0.029-0.168-0.055-0.353-0.074-0.552c-0.02-0.198-0.03-0.394-0.03-0.582h-0.029c-0.318,0.468-0.679,0.804-1.082,1.008
	c-0.402,0.203-0.887,0.305-1.454,0.305c-0.27,0-0.544-0.037-0.827-0.111c-0.284-0.076-0.543-0.197-0.777-0.367
	c-0.232-0.17-0.427-0.389-0.58-0.658c-0.154-0.27-0.231-0.598-0.231-0.988c0-0.539,0.137-0.965,0.41-1.279
	c0.273-0.313,0.639-0.549,1.097-0.703c0.457-0.154,0.981-0.254,1.573-0.299s1.205-0.067,1.842-0.067V49.016z M201.07,50.042
	c-0.418,0-0.838,0.019-1.261,0.052c-0.423,0.035-0.806,0.105-1.148,0.209c-0.343,0.105-0.624,0.258-0.843,0.455
	c-0.219,0.199-0.328,0.463-0.328,0.791c0,0.248,0.047,0.457,0.142,0.627c0.095,0.168,0.222,0.305,0.381,0.409
	s0.335,0.179,0.529,0.224c0.193,0.045,0.391,0.067,0.589,0.067c0.358,0,0.677-0.062,0.954-0.187
	c0.278-0.125,0.513-0.293,0.702-0.506c0.188-0.215,0.332-0.461,0.431-0.739c0.101-0.278,0.15-0.571,0.15-0.88v-0.522H201.07z"/>
<polygon fill="#6D6E71" points="205.754,53.533 205.754,46.553 206.768,46.553 206.768,52.624 210.512,52.624 210.512,46.553 
	211.526,46.553 211.526,52.624 212.689,52.624 212.689,55.606 211.675,55.606 211.675,53.533 "/>
<polygon fill="#6D6E71" points="220.475,47.85 216.194,53.534 215.15,53.534 215.15,46.552 216.194,46.552 216.194,52.026 
	220.475,46.552 221.519,46.552 221.519,53.534 220.475,53.534 "/>
<path fill="#6D6E71" d="M228.216,50.536c-0.775,0-1.367,0.266-1.774,0.798c-0.408,0.53-0.651,1.265-0.73,2.198h-1.134
	c0.029-0.387,0.094-0.76,0.193-1.117c0.1-0.358,0.236-0.684,0.41-0.977s0.383-0.548,0.626-0.762
	c0.244-0.213,0.525-0.375,0.844-0.484v-0.045c-0.508-0.05-0.925-0.201-1.254-0.455c-0.327-0.254-0.491-0.633-0.491-1.141
	c0-0.636,0.246-1.128,0.738-1.477c0.492-0.348,1.21-0.522,2.155-0.522h2.64v6.979h-1.015v-2.996H228.216z M225.979,48.551
	c0,0.239,0.055,0.432,0.164,0.582c0.108,0.148,0.256,0.26,0.439,0.335c0.185,0.075,0.396,0.125,0.635,0.149
	c0.238,0.025,0.482,0.037,0.73,0.037h1.477v-2.223h-1.491c-0.269,0-0.521,0.01-0.761,0.03c-0.238,0.021-0.445,0.067-0.619,0.142
	s-0.313,0.187-0.417,0.336S225.979,48.292,225.979,48.551"/>
</svg>
